<?xml version="1.0" encoding="utf-8"?>
<svg viewBox="42.052 9.943 422.38 481.938" xmlns="http://www.w3.org/2000/svg">
  <g transform="matrix(2.028983, 0, 0, 2.028983, -78.321991, -53.969978)" style="">
    <path style="opacity:1" fill="#77f9d7" d="M 217.5,240.5 C 200.061,249.721 182.727,259.221 165.5,269C 161.887,269.208 158.554,268.208 155.5,266C 123.917,247.292 92.4172,228.459 61,209.5C 59.5264,191.26 59.0264,172.927 59.5,154.5C 59.3334,133.164 59.5,111.831 60,90.5C 61.7581,88.2345 63.9248,86.5678 66.5,85.5C 96.1393,68.6786 125.806,51.8453 155.5,35C 158.174,33.4117 161.008,32.245 164,31.5C 198.816,50.9757 233.15,71.309 267,92.5C 267.667,131.833 267.667,171.167 267,210.5C 265.833,211.667 264.667,212.833 263.5,214C 247.941,222.608 232.607,231.441 217.5,240.5 Z"/>
  </g>
  <g transform="matrix(2.028983, 0, 0, 2.028983, -78.321991, -53.969978)" style="">
    <path style="opacity:1" fill="#0d192f" d="M 162.5,45.5 C 192.942,62.891 223.276,80.5576 253.5,98.5C 254.667,133.829 254.833,169.162 254,204.5C 224.146,221.76 194.146,238.76 164,255.5C 133.767,237.966 103.601,220.3 73.5,202.5C 72.3334,167.171 72.1668,131.838 73,96.5C 102.815,79.3463 132.648,62.3463 162.5,45.5 Z"/>
  </g>
  <g transform="matrix(2.028983, 0, 0, 2.028983, -78.321991, -53.969978)" style="">
    <path style="opacity:1" fill="#77fad7" d="M 183.5,145.5 C 183.5,149.167 183.5,152.833 183.5,156.5C 172.167,156.5 160.833,156.5 149.5,156.5C 149.175,164.019 149.508,171.352 150.5,178.5C 162.833,178.5 175.167,178.5 187.5,178.5C 187.5,182.5 187.5,186.5 187.5,190.5C 170.833,190.5 154.167,190.5 137.5,190.5C 137.5,164.833 137.5,139.167 137.5,113.5C 154.167,113.5 170.833,113.5 187.5,113.5C 187.5,117.5 187.5,121.5 187.5,125.5C 175.167,125.5 162.833,125.5 150.5,125.5C 150.5,132.167 150.5,138.833 150.5,145.5C 161.5,145.5 172.5,145.5 183.5,145.5 Z"/>
  </g>
  <g transform="matrix(2.028983, 0, 0, 2.028983, -78.321991, -53.969978)" style="">
    <path style="opacity:1" fill="#3e817c" d="M 183.5,145.5 C 184.483,149.298 184.817,153.298 184.5,157.5C 173.167,157.5 161.833,157.5 150.5,157.5C 150.5,164.5 150.5,171.5 150.5,178.5C 149.508,171.352 149.175,164.019 149.5,156.5C 160.833,156.5 172.167,156.5 183.5,156.5C 183.5,152.833 183.5,149.167 183.5,145.5 Z"/>
  </g>
</svg>